<svg xmlns="http://www.w3.org/2000/svg" xml:space="preserve" width="100" height="100" id="soccer">
  <path d="M22.947 29.831c-.012.522.051 1.788.871 2.245a.988.988 0 0 0 .486.127c.631 0 1.176-.592 1.551-1.156-.129.388-.031.663.078.831.299.451.928.503 1.375.503.205 0 .43-.014.662-.036.27-.027.613-.067 1.001-.113 1.082-.128 2.563-.303 3.546-.303.354 0 .694-.007 1.022-.014.299-.006.587-.012.866-.012.668 0 1.138.036 1.562.121.466.093.978.14 1.531.14.14 0 .259-.004.362-.008.254.424.51.799.764 1.075.531.581 1.007 1.273 1.466 1.942.517.757 1.007 1.471 1.577 2.041.505.506.678.807.865 1.126.181.307.367.627.806 1.066.817.817.963.963 1.133 1.478.063.189.152.388.24.585.101.221.285.63.248.745-.125.153-.935.749-1.582 1.228-.922.681-1.876 1.385-2.336 1.846-.802.802-3.992 3.171-4.821 3.69l-.835.521a.49.49 0 0 0-.229.446c-.021.062-.137.344-.756.839-.649.517-1.067.921-1.471 1.313-.261.252-.523.504-.846.789-.877.768-2.207 2.614-2.451 3.594-.248.996.105 2.22.861 2.976.328.331.945.694 1.594 1.082.674.399 1.438.853 1.723 1.188.586.684 2.73 2.76 3.791 3.349.397.22 1.139.735 1.924 1.282 1.021.713 2.08 1.449 2.688 1.754.256.13.573.275.921.437 1.01.464 2.389 1.101 3.045 1.687l.286.255c.78.688 1.292 1.143 1.729 1.753l.465.648c.066.291.257 1.248.178 2.041-.021.209-.034.412-.047.611-.046.773-.085 1.385-.564 1.934-1.052 1.203-1.584 2.19-1.584 2.937l-.002.214c-.007.537-.015 1.094.348 1.462.15.153.43.339.94.275.806-.103 1.241-.103 1.841-.003.027.006.142.016.169.016.469 0 .82-.307 1.056-.62a.987.987 0 0 0 .422.091c.317 0 .798 0 1.108-.357.196-.227.27-.533.219-.916.023.011.072-.006.141-.006.109 0 .2.016.213.019a.498.498 0 0 0 .562-.329c.113-.335.361-.961.554-1.218.667-.89 1.226-1.336 1.461-1.376a59.927 59.927 0 0 0 1.563-.291c.279.081.826.189 1.117.043a.608.608 0 0 0 .342-.553.9.9 0 0 0-.142-.471c.122-.078.216-.14.306-.199.388-.264.535-.309.783-.287.104.006.221.029.323.013.155 0 .613-.002.908-.335.19-.219.265-.51.22-.869-.121-.974-.404-1.482-1.035-2.322-.527-.705-.666-.812-1.111-1.113a18.168 18.168 0 0 1-.354-.245c-.33-.238-.441-.407-.57-.603a2.436 2.436 0 0 0-.557-.637c-.199-.158-.382-.29-.611-.29-.261 0-.412.167-.469.229-.027.031-.042.043-.146.062-.26.051-.411-.066-.783-.346a7.559 7.559 0 0 0-.426-.311l-.227-.146c-.662-.436-1.771-1.164-2.373-1.938-.385-.496-.867-.976-1.334-1.442-.449-.452-.875-.875-1.167-1.267l-.653-.878a103.63 103.63 0 0 0-1.545-2.053c-.756-.972-1.893-1.909-2.905-2.698-.548-.425-1.771-1.137-2.747-1.683l1.24-.13 1.928 1.64a.49.49 0 0 0 .531.069l3.763-1.787c.609 1.062 2.257 3.898 2.967 4.697.447.502 1.302 1.707 2.056 2.769.642.905 1.196 1.687 1.49 2.028.348.406.706 1.005 1.053 1.584.244.406.479.796.694 1.098.31.434.652.68.901.859.107.078.254.183.275.229.107.432.34 1.083 1.103 1.719.31.258.673.287.92.287.142 0 .291-.011.446-.022.486-.041.982-.095 1.387.399.716.877 1.816 1.848 2.359 2.31-.103.233-.183.534-.112.831a.947.947 0 0 0 .524.644c.26.13.582.238.957.363.631.214 1.416.478 2.373.987 1.354.723 2.807 1.697 3.974 2.478l.476.317c.78.519 1.771.804 2.729 1.076.678.193 1.318.377 1.814.627 1.137.567 1.855 1.019 1.926 1.508.072.504-.111 1.213-.188 1.443a.49.49 0 0 0-.009.284c.004.013.281 1.058.098 1.97-.051.252-.095.528-.141.813-.125.769-.277 1.726-.59 2.099-.14.168-.313.324-.487.485-.511.47-1.089 1.006-1.089 1.813 0 1.021.324 1.521 1.238 1.916.738.315 1.266.524 1.266.524a.48.48 0 0 0 .571-.156l.323-.418.138.191a.492.492 0 0 0 .584.172l1.045-.418a.497.497 0 0 0 .308-.514l-.024-.219.447.121a.489.489 0 0 0 .541-.201l.418-.627a.487.487 0 0 0 .083-.271c0-.017.019-1.381.899-2.265a27.601 27.601 0 0 1 1.5-1.357c.501-.429.863-.738 1.052-.991a.313.313 0 0 1 .187.022.496.496 0 0 0 .604-.074l.73-.73a.493.493 0 0 0 .146-.35.776.776 0 0 0 .258-.066.611.611 0 0 0 .368-.561c0-.193.05-.812.083-1.203.133-.122.285-.316.367-.591.138-.466.034-1.001-.31-1.588l-.267-.466c-.497-.875-.683-1.203-1.774-1.896a2.966 2.966 0 0 0-1.504-.49c-.089-.008-.209-.017-.242-.033.002-.002-.019-.023-.047-.09-.258-.599-.673-.688-.896-.688a.935.935 0 0 0-.424.104c-.198-.138-.606-.449-1.291-1.136-.584-.585-1.129-1.016-1.608-1.399-.569-.455-1.063-.849-1.487-1.379-.291-.364-.545-.73-.791-1.084-.472-.681-.918-1.324-1.564-1.9-1.012-.898-2.836-2.062-3.904-2.489-.381-.153-.8-.392-1.242-.649-.713-.41-1.521-.875-2.461-1.144-1.418-.405-1.82-.437-1.91-.437-.434-.069-1.369-.321-1.74-.691-.475-.475-1.42-3.225-1.529-4.098a13.652 13.652 0 0 1-.092-1.17l1.033-.396a.492.492 0 0 0 .299-.584c-.006-.027-.719-2.795-.819-4.501a80.151 80.151 0 0 1-.104-3.938c0-.809-.032-4.904-.688-6.085-.312-.564-.713-1.584-.968-2.265 1.577-.073 1.829-1.011 1.864-1.424.135-1.614-1.155-2.508-2.403-3.371l-.417-.287c-1.318-.905-3.77-2.591-4.479-3.564-.809-1.113-2.05-3.707-2.549-5.004-.531-1.383-1.357-4.189-1.549-4.955a48.754 48.754 0 0 0-.518-1.815l2.18.233a.502.502 0 0 0 .494-.271l.287-.574 2.097-.084c.452.468 1.781 1.805 2.853 2.52.688.459 1.756 1.765 2.612 2.815.649.794 1.208 1.48 1.615 1.842.92.817 2.97 2.877 3.446 3.734.27.484.781.992 1.275 1.484.365.363.918.913.963 1.115-.002.091-.01.182-.016.255-.016.18-.033.403.139.591a.584.584 0 0 0 .396.171c.207 0 .347-.088.764-.349l.098-.061c.39-.244.623-.603.672-1.04a1.908 1.908 0 0 0-.182-1.002l.359-.039c.865-.09 1.848-.192 2.387-.529.526-.329.874-.917.953-1.612.071-.624-.096-1.206-.447-1.558-.406-.406-.855-.406-1.289-.406-.373 0-.797 0-1.39-.228-.76-.293-1.351-.813-1.825-1.231-.339-.299-.607-.535-.884-.646-.431-.172-1.044-.222-1.392-.237-.524-.715-2.348-3.218-2.951-4.341-.653-1.215-1.87-3.477-3.233-4.726l-.292-.268c-1.076-.988-1.402-1.287-1.906-1.413a22.544 22.544 0 0 0-.596-.132c-.691-.148-1.738-.37-2.396-.589a6.937 6.937 0 0 0-1.299-.312l-.295-.588a.494.494 0 0 0-.367-.268l-2.717-.417c-.439-.068-1-.136-1.589-.207-1.19-.144-2.542-.308-3.133-.504l-.231-.078c-.912-.31-1.981-.671-3.439-.465-.419.06-.838.136-1.245.211-.974.179-1.912.331-2.44.213-.279-.061-.582-.104-.886-.15-.563-.082-1.268-.184-1.446-.406-.246-.308-.527-1.705-.414-3.524.108-1.766-.233-2.675-1.416-3.74-1.063-.957-1.563-1.341-2.625-1.577C34.99 5.056 34.389 5 33.753 5c-.843 0-1.628.096-2.213.271-1.151.345-2.271 1.249-3.216 2.088-1.065.947-1.211 2.514-1.211 3.92 0 .753.175 1.534.302 2.104.062.275.137.616.131.714-.065.183-.487 1.954-.078 2.91.228.527.763.759 1.228.662.102.221.254.51.479.867.272.439.531.643.737.807.218.172.336.266.466.654.206.619.66 1.82 2.05 1.472.344-.086.684-.217.975-.349-.035.721.002 1.698.346 2.388.195.39.395.931.605 1.504.321.875.656 1.769 1.051 2.338-.351.2-1.112.52-2.338.455-.438-.023-.783-.035-1.066-.046-.979-.037-1.105-.041-1.663-.32-.899-.45-2.955-.991-3.562-.991-.824 0-2.629.89-2.832.991-.704.352-.975 1.507-.997 2.392zm16.862-14.766-1.863 8.43s-2.609-2.716-3.026-3.237c-.166-.208-.349-.247-.508-.223a.507.507 0 0 0-.159-.188.488.488 0 0 0-.534-.008c-.007.005-.782.484-1.528.671-.103.025-.19.037-.263.037-.151 0-.323 0-.61-.863-.224-.667-.523-.905-.789-1.115-.178-.142-.33-.263-.516-.557-.46-.737-.566-1.114-.568-1.117a.502.502 0 0 0-.312-.338.498.498 0 0 0-.452.062.54.54 0 0 1-.238.089c-.006 0-.035-.019-.062-.091-.229-.527.004-1.915.118-2.26.089-.267.012-.615-.115-1.189-.124-.554-.276-1.244-.276-1.89 0-1.188.105-2.494.879-3.182l.098-.082c-.001.007-.008.017-.008.026 0 .73 1.045 1.148 2.195 1.984 1.147.835 1.043 2.088 1.773 2.088s.836.104 1.148-.835.938-1.149 1.982-.731.627 1.88 1.148 2.507c.424.508.783.4 1.347.396.106.494.255.909.461 1.166.168.211.409.346.678.45zm17.019 6.893c-.055.003-.1.028-.15.048.129-.681.277-1.507.379-2.165.117-.765.102-1.653.066-2.291.074.043.158.07.247.07.001 0 .473.01 1.306.287.711.237 1.79.467 2.503.618.253.054.452.097.562.124.252.063.515.297 1.479 1.183l.292.269c1.239 1.136 2.405 3.302 3.031 4.465.74 1.374 3.072 4.521 3.172 4.654.094.126.24.2.396.2.235 0 .925.031 1.279.174.118.047.361.262.596.469.506.446 1.199 1.058 2.125 1.413.765.294 1.33.294 1.744.294.383 0 .484.012.59.116.111.112.205.387.164.747-.043.39-.229.721-.494.887-.346.216-1.32.318-1.967.385-.959.101-1.356.142-1.498.539-.063.179.006.44.14.575.127.127.337.502.303.797a.371.371 0 0 1-.13.251c-.145-.461-.625-.941-1.209-1.522-.424-.422-.906-.902-1.107-1.264-.57-1.026-2.695-3.14-3.654-3.992-.346-.31-.909-.999-1.504-1.728-.946-1.16-2.019-2.473-2.83-3.014-1.191-.794-2.821-2.521-2.838-2.538a.467.467 0 0 0-.379-.155l-2.614.104zm8.127 20.802.174-.435c-.001.045.005.088.001.135a.424.424 0 0 1-.175.3zm1.097 32.611c-.019-.061.084-.289.175-.41.012-.016.014-.034.024-.051l.007.004c.178-.305.439-.801.748-1.389.67-1.273 2.204-4.185 2.82-4.627.191.05.408.107.673.184.821.236 1.542.65 2.237 1.051.475.273.922.53 1.369.709.965.385 2.688 1.488 3.614 2.312.558.496.972 1.093 1.409 1.724.258.374.523.757.831 1.14.494.616 1.052 1.062 1.644 1.534.482.384.98.781 1.525 1.326 1.219 1.218 1.734 1.446 1.9 1.487.023.006.047-.004.07-.001-.084.944-.227 2.548-1.099 3.071-.879.526-2.488 1.267-3.228 1.241.068-.358.121-.8.062-1.209-.146-1.015-1.201-1.618-2.461-2.25-.578-.288-1.261-.483-1.985-.69-.885-.252-1.8-.514-2.451-.948l-.475-.317c-1.186-.794-2.661-1.781-4.059-2.527-1.028-.549-1.893-.838-2.523-1.051-.337-.116-.628-.213-.827-.313zM55.559 63.982c.207-.176.491-.414.873-.697.834-.626 1.983-1.465 2.506-1.88.522-.419 1.984-1.046 4.176-.419a6.472 6.472 0 0 0 1.438.248c-.021.057-.052.108-.052.171 0 .028.002.771.107 1.627.101.802 1.041 3.903 1.812 4.675.666.664 1.961.909 2.293.962-.639.806-1.449 2.245-2.583 4.399-.163.312-.312.592-.44.832-.551-.475-1.481-1.312-2.088-2.053-.576-.705-1.259-.787-1.721-.787-.174 0-.346.013-.511.026a4.35 4.35 0 0 1-.366.021c-.195 0-.259-.034-.289-.06-.533-.444-.695-.876-.775-1.2-.096-.384-.379-.589-.654-.787-.227-.162-.461-.332-.676-.636a15.044 15.044 0 0 1-.65-1.03c-.368-.614-.749-1.248-1.15-1.719-.237-.275-.72-.948-1.25-1.693zM47.678 81.38l-.001-.002.005.002h-.004zM34.87 61.414c.714-.566 2.309-1.1 3.63-1.537.523-.175 1.039-.347 1.502-.518 1.291-.477 2.128-.771 2.562-.92.678.396 1.324.793 1.664 1.057.906.707 2.039 1.63 2.731 2.521.495.638 1.038 1.371 1.53 2.035l.656.883c.334.445.783.895 1.259 1.371.444.446.905.907 1.25 1.352.703.904 1.898 1.688 2.611 2.156l.221.146c.14.092.263.187.377.272.418.316.854.643 1.543.533.158-.025.275-.072.378-.121-.281.532-.648 1.367-1.503 1.724-1.254.522-2.61.938-3.551.627-.662-.222-1.574-.437-2.133-.438a.489.489 0 0 0-.075-.162l-.522-.73c-.5-.699-1.078-1.211-1.877-1.918l-.284-.253c-.769-.683-2.165-1.326-3.287-1.845a26.585 26.585 0 0 1-.894-.422c-.547-.273-1.62-1.022-2.567-1.682-.806-.562-1.569-1.093-2.008-1.338-.752-.417-2.392-1.928-3.213-2.793zm1.176-11.031c.381.453.972 1.15 1.487 1.729.834.94 2.299 1.565 3.97 2.611.825.516 1.315.928 1.604 1.213l-2.699.278a.491.491 0 1 0-.182.925c.01.008.528.284 1.196.655-.453.161-1.036.371-1.765.64-.451.168-.957.334-1.471.506-1.562.518-3.162 1.053-4.014 1.774-.426-.34-1.006-.688-1.576-1.026-.568-.338-1.156-.688-1.4-.932-.504-.507-.764-1.383-.601-2.037.175-.695 1.357-2.4 2.144-3.091.341-.297.613-.56.884-.821.403-.393.787-.765 1.397-1.252.605-.483.888-.869 1.026-1.172zM23.941 29.847c.017-.876.297-1.45.446-1.525.981-.49 2.052-.888 2.392-.888.433 0 2.34.498 3.121.888.748.374 1.026.385 2.066.424.279.01.62.024 1.051.046 1.334.069 2.246-.254 2.768-.524l1.275 2.369c.09.179.178.357.269.533a6.839 6.839 0 0 1-1.159-.118c-.621-.125-1.266-.141-1.757-.141-.285 0-.581.007-.888.013-.321.007-.656.014-1.002.014-1.041 0-2.557.179-3.66.309-.381.045-.719.085-.984.111-.492.048-.917.02-1.053-.019.25-.313 1.309-.643 2.312-.775a.493.493 0 0 0 .426-.407.502.502 0 0 0-.269-.524c-.472-.235-1.62-.783-2.103-.783-.062 0-.131-.011-.195-.021-.117-.015-.234-.03-.35-.03-.521 0-.914.293-1.162.873-.356.829-.946 1.54-1.178 1.54-.196-.108-.386-.619-.366-1.365zm2.454.215c.114-.274.191-.274.254-.274.068 0 .142.011.211.021.111.015.226.03.334.03.052.003.146.028.266.07-.523.159-1.029.382-1.333.694.146-.267.238-.478.268-.541zm-6.729 50.554-1.88 2.625-3.06-1.003v-3.245l3.06-1.004 1.88 2.627zm-10.301-.328c0 4.312 3.508 7.819 7.82 7.819s7.82-3.508 7.82-7.819-3.509-7.822-7.82-7.822c-4.313 0-7.82 3.511-7.82 7.822zm1.515 2.127a6.605 6.605 0 0 1-.218-3.474l2.821-.698-.213-2.954-.613.123a6.636 6.636 0 0 1 4.529-1.79c.029 0 .06.005.09.005l-.77.354 1.566 2.516 2.742-1.115-.533-.955a7.124 7.124 0 0 1 2.267 1.926c.011.019.021.03.033.047.079.101.147.213.219.318a6.63 6.63 0 0 1 .917 2.276l-.597-.647-1.907 2.266 1.907 2.268.331-.359a6.692 6.692 0 0 1-2.537 3.278l-2.631-1.069-1.37 2.203a6.605 6.605 0 0 1-3.617-1.25l.187-2.619-2.603-.65z"></path>
</svg>
