<svg xmlns="http://www.w3.org/2000/svg" xml:space="preserve" width="100" height="100" viewBox="0 0 100 100" id="golf">
  <path d="M80.32 20.305c-.03-.449-.066-.958-.018-1.457.102-1.007-.05-1.716-.459-2.168-.477-.528-1.145-.528-1.543-.528-.627 0-1.175.478-1.473.801L55.236 12.13c-.077-.147-.156-.295-.238-.445s-.154-.282-.208-.39c-.481-.961-2.067-1.256-2.972-1.347-.193-.018-.351-.038-.488-.055-.705-.086-.934-.096-1.941.178a2.852 2.852 0 0 0-1.015.526L34.17 7.426c.04-.23.056-.456.017-.695-.047-.287-.188-1.033-3.538-.963-.007-.024-.004-.053-.012-.077-.149-.445-.48-.691-.934-.691-.232 0-.464.062-.709.128-.161.043-.333.09-.513.116a6.926 6.926 0 0 1-.491.047c-.631.048-1.417.107-2.121.712-.631.541-.871 1.239-1.149 2.049-.108.315-.226.658-.38 1.029-.454 1.09-.419 1.673-.382 2.291.011.177.022.363.022.579 0 .348-.064 1.146-.132 1.989-.12 1.487-.256 3.171-.187 3.941.034.369.034.948.034 1.561 0 1.676.025 2.912.339 3.541.36.721.665.878 1.215 1.114.205.087.465.198.813.388 1.2.655 4.39 1.828 5.753 2.282.854.285 1.778.354 2.427.359-.016.604-.062 1.604-.196 2.272l-.129.654c-.204 1.036-.482 2.454-.83 3.929-.235 1.002-.703 2.399-1.155 3.751-.351 1.052-.683 2.044-.874 2.761-.211.79-.469 1.973-.719 3.116-.261 1.197-.508 2.328-.667 2.86-.377 1.259-.084 3.72.204 5.066.137.639.213 1.406.294 2.22.104 1.041.211 2.116.46 3.048.208.779.165 2.336.123 3.84-.04 1.443-.077 2.809.082 3.713.177 1.002.257 3.014.328 4.787.056 1.402.108 2.729.203 3.529.238 2.023.892 6.021 1.63 8.133.719 2.055.93 6.483.83 7.383-.038.416-.208 2.523.146 3.351.283.661.89.815 1.766.688.196-.029.406-.062.625-.062.85 0 1.896-.098 3.495-.325.481-.067 1.068-.077 1.631-.077l.899.002c1.098 0 1.885-.047 2.418-.283.515-.229 1.006-.481 1.386-.889-.107.805-.166 1.627-.056 2.229.231 1.271.646 1.986 2.163 2.125.361.032.636.053.861.053.715 0 1.077-.238 1.576-.736.599-.597 1.16-1.638 1.724-3.181.372-1.022.508-3.533.608-5.366.021-.41.041-.781.062-1.086.036-.553.101-1.041.156-1.48.11-.854.204-1.59.047-2.301-.246-1.104-.95-1.812-1.634-2.494-.574-.574-.574-.574-.498-1.187.117-.937-.219-4.002-.43-5.382-.229-1.479-.785-3.666-1.19-5.09a40.25 40.25 0 0 0-.377-1.227c-.22-.685-.353-1.096-.353-1.523 0-.471-.144-1.872-.297-3.356-.099-.96-.195-1.896-.239-2.459-.046-.608-.168-1.349-.296-2.131-.169-1.03-.344-2.097-.344-2.858 0-1.371-.398-3.186-.771-4.425-.282-.938-.407-5.074-.407-6.488 0-1.076.5-3.666 1.031-4.941a138.716 138.716 0 0 0 1.828-4.729c.31-.851 1.296-2.766 2.017-4.163.25-.484.473-.917.635-1.24.527-1.055.316-1.706.131-2.279-.08-.252-.158-.489-.187-.78-.021-.214-.06-.466-.101-.737-.125-.829-.334-2.216.113-2.552.721-.541.938-1.05 1.114-1.458.06-.134.112-.266.192-.398.06-.099.115-.201.17-.301.086-.158.23-.421.277-.452.137.054.338.202.516.331.314.231.563.413.849.413.296 0 .614-.212.614-.679 0-.446-.23-.914-.434-1.327a5.841 5.841 0 0 1-.22-.47c.008-.098.175-.387.286-.578.199-.345.447-.774.566-1.246.053-.213.057-.44.025-.679l20.395 4.392c.051.868.213 2.847.675 3.771.304.607.803.941 1.407.941.526 0 1.104-.262 1.543-.702.495-.491.44-1.254.381-2.062zm-29.114-9.407c.144.017.31.038.513.058 1.286.129 2.016.491 2.165.793l.05.09-3.938-.879c.599-.146.768-.117 1.21-.062zm-.324 9.726a.525.525 0 0 0-.151-.129c-1.234-.686-3.407-1.431-4.044-1.643a4.096 4.096 0 0 0-.773-.176l.07-.093c.224-.294.429-.588.567-.951.51.353 1.727.883 2.331 1.487.506.506 1.583.909 2.239 1.121a1.537 1.537 0 0 0-.239.384zm-5.302-7.149c-.475.665-.258 1.516-.067 2.266.096.378.187.734.187 1.025 0 .518-.185.762-.522 1.206-.147.195-.309.407-.47.666-.037.059-.066.092-.1.141a1.631 1.631 0 0 0-.288.134.489.489 0 0 0-.211.347c-.152.08-.33.144-.602.229l-.35.113a2.395 2.395 0 0 0-.532.26c-.433-.375-3.251-2.823-4.423-3.897-.551-.505-1.286-1.34-1.996-2.147-.976-1.109-1.819-2.067-2.357-2.403-.429-.268-.712-.831-.856-1.124.157-.19.302-.424.418-.726.057-.148.111-.285.163-.415l13.421 2.891-.095.075c-.448.354-.802.634-1.32 1.359zM30.346 8.37c.142-.493.29-1.053.351-1.589 1.105-.013 2.177.083 2.504.23.015.312-.12.661-.411 1.376-.095.236-.204.503-.323.813-.285.742-.759.804-1.219.865-.226.03-.439.058-.623.18l.526.861c.035-.012.147-.027.229-.038.209-.028.49-.067.783-.181.204.402.556 1.013 1.149 1.384.412.258 1.327 1.297 2.134 2.214.728.827 1.48 1.682 2.072 2.224.733.672 2.101 1.873 3.138 2.778a7.152 7.152 0 0 0-.677-.025l-.834.005c-.891 0-1.65.163-2.455.336-.168.037-.345.072-.52.108-.577-.619-2.837-3.042-3.408-3.613-.374-.375-1.136-1.957-1.692-3.112a39.421 39.421 0 0 0-.789-1.587 14.538 14.538 0 0 1-.916-2.036c.397-.246.805-.579.981-1.193zm1.095 11.633c-.889 0-1.816.05-2.324.082-.169-.492-.466-1.375-.609-1.945-.122-.487-.173-2.195-.215-3.568-.027-.883-.052-1.712-.092-2.232-.102-1.323.118-1.916.305-2.178.182.479.468 1.157.886 1.923.204.374.473.934.766 1.542.815 1.693 1.428 2.927 1.889 3.388.452.452 2.054 2.163 2.932 3.103-.813.104-1.503.057-2.183-.021-.416-.046-.843-.094-1.355-.094zm-5.793 3.163c-.441-.189-.497-.213-.708-.636-.232-.464-.232-1.981-.232-3.088 0-.637 0-1.238-.038-1.653-.062-.683.076-2.393.188-3.768.073-.903.136-1.682.136-2.071 0-.238-.012-.445-.024-.64-.035-.582-.059-.967.306-1.84.164-.393.289-.756.403-1.09.249-.725.428-1.248.851-1.61.453-.388.956-.426 1.538-.47.19-.014.377-.029.558-.055a5.39 5.39 0 0 0 .632-.141c.171-.046.348-.093.421-.093.157.47-.121 1.438-.328 2.162-.083.289-.42.482-.778.688-.246.141-.5.287-.698.485-.573.573-.796 1.577-.682 3.071.039.508.063 1.321.089 2.186.047 1.568.097 3.19.245 3.783.218.871.741 2.34.764 2.402a.504.504 0 0 0 .516.334 41.92 41.92 0 0 1 2.13-.101c.005 1.169.028 3.271.132 4.414-1.546-.553-3.654-1.366-4.521-1.839a9.724 9.724 0 0 0-.9-.43zm20.267 65.461c-.088 1.23-.635 1.534-1.52 1.928-.444.197-1.461.197-2.007.197l-.899-.003c-.6 0-1.23.011-1.774.088-1.55.222-2.553.315-3.353.315-.27 0-.531.035-.773.072-.165.023-.318.049-.457.049-.159 0-.181-.021-.23-.135-.153-.359-.157-1.433-.106-2.312a.896.896 0 0 0 .176.049c.642.105 3.638-.643 5.028-1.178.511-.196.759-.422.873-.645.174.293.376.553.666.746.459.307 1.285.383 2.401.461.411.027.974.065 1.116.123a.496.496 0 0 0 .442-.033c.055-.031.244-.117.379-.133-.001.003.061.096.038.411zm.784-.998c-.025-.035-.052-.066-.08-.1a.998.998 0 0 0-.748-.309c-.261 0-.509.082-.678.152-.274-.059-.657-.087-1.185-.123-.613-.043-1.639-.111-1.909-.293-.456-.303-.64-.855-.963-2.359-.326-1.518-.744-5.052-.846-6.771-.108-1.835-.638-5.778-.863-7.017-.225-1.238-.837-6.82-.743-7.662.03-.271.077-1.11.13-2.189.027.079.058.152.091.221.128.264.32 1.803.461 2.928.175 1.399.355 2.849.571 3.709.196.783.499 2.895.792 4.936.355 2.471.689 4.805.927 5.576.211.686 2.214 6.943 2.737 7.729.347.52 1.021.52 1.243.52.29 0 .605-.039.891-.076.125-.016.242-.031.36-.041-.015.304-.121.837-.188 1.169zm5.584-4.609c-.061.461-.125.969-.163 1.545-.021.307-.041.682-.063 1.099-.091 1.67-.229 4.192-.549 5.075-.504 1.382-1.003 2.326-1.487 2.811-.399.398-.52.439-.861.439a8.88 8.88 0 0 1-.769-.051c-.885-.08-1.073-.274-1.26-1.299-.154-.847.143-2.484.319-3.464.049-.271.089-.497.112-.653.026-.186.074-.418.123-.664.167-.83.304-1.521.129-1.961.115-.496.436-1.851.684-2.513a.505.505 0 1 0-.947-.356c-.238.637-.522 1.791-.67 2.418a9.375 9.375 0 0 0-.482.05 6.075 6.075 0 0 1-.762.067c-.328 0-.4-.068-.4-.068-.065-.098-.18-.361-.325-.735.321-.269.968-.897 1.509-1.979.749-1.498 1.391-.963 2.889-2.461.74-.739 1.348-1.034 1.775-1.145.567.57 1.09 1.124 1.261 1.896.119.534.039 1.158-.063 1.949zm-1.179-56.317c-.16.321-.381.749-.629 1.229-.774 1.501-1.737 3.369-2.068 4.281a137.223 137.223 0 0 1-1.812 4.686c-.538 1.292-1.107 4.024-1.108 5.323-.677-.014-1.889-.059-2.704-.207-1.177-.213-3.21-.107-5.029-.321-1.499-.176-4.592-.28-5.875-.311.055-.229.108-.441.158-.628.183-.687.51-1.665.857-2.701.459-1.374.934-2.794 1.18-3.84.352-1.494.632-2.923.837-3.967l.129-.651c.221-1.106.224-2.912.224-2.988a.506.506 0 0 0-.541-.504c-.026.002-1.376.107-2.586-.296v-.001c-.109-.342-.176-2.602-.186-4.77.248.017.489.04.732.067.71.079 1.535.138 2.463.015a21.544 21.544 0 0 0 1.757-.324c.783-.168 1.459-.313 2.242-.313l.834-.005c.915 0 1.126.098 1.294.392.075.132.305.533.756.533.316 0 .539-.197.755-.388.187-.166.398-.353.693-.451l.336-.109c.575-.183.974-.314 1.387-.784.246-.037.622-.038 1.167.144 1.268.422 2.952 1.056 3.873 1.567a.502.502 0 0 0 .245.063.51.51 0 0 0 .218-.058c-.064.675.045 1.444.148 2.125.037.253.073.487.094.687.039.399.141.713.23.99.169.518.27.831-.071 1.515zm3.812-12.308c-.084.334-.284.68-.46.986-.271.465-.502.868-.396 1.292.055.218.172.457.297.71l.002.006a1.884 1.884 0 0 0-.262-.131 1.055 1.055 0 0 0-.39-.078c-.271 0-.472.115-.64.269-.354-.092-1.038-.211-1.728-.47-.856-.321-1.071-.535-2.675-1.605-1.025-.684-1.611-1.364-1.902-1.768.249-.284.466-.461.763-.696l.171-.136c.167-.133.312-.304.458-.483l1.239.267a.82.82 0 0 0-.301.036c-.642.214-.856.963-.856.963.214.428.321.855.963 1.177.642.322.856 1.391 1.605.963.748-.428.855-1.177.32-1.926-.359-.502-.861-.95-1.348-1.13l5.056 1.089c.085.258.127.496.084.665zm24.313 7.254c-.242.243-.574.406-.826.406-.146 0-.334-.043-.502-.381-.392-.782-.555-2.9-.588-3.708l.111-.148c.17-.228.604-.653.878-.653.351 0 .63.015.793.195.198.219.271.712.203 1.388-.06.586-.021 1.14.015 1.629.039.546.078 1.11-.084 1.272z"></path>
</svg>
