<svg xmlns="http://www.w3.org/2000/svg" xml:space="preserve" width="100" height="100" id="runner">
  <path d="M85.944 25.815c-.096-1.429-.614-2.245-1.848-2.909-1.151-.621-1.841-.74-3.223-.556-.581.078-1.087.469-1.423 1.102-.463.872-.555 2.096-.209 2.787.426.854.726 1.576.396 2.434-.269.699-.737 1.391-1.279 2.192-.246.363-.504.744-.762 1.153-.292.464-.771.997-1.232 1.512l-.154.172c-.096-.492-.221-1.127-.369-1.862-.338-1.687-1.043-2.521-1.151-2.641.024-.175.049-.35.073-.533.306-2.34-1.062-4.693-1.664-5.597-.554-.83-1.152-1.127-1.635-1.365a5.72 5.72 0 0 1-.349-.188c.475-.374 1.173-.841 1.727-.926 1.02-.156 1.108.009 2.339-.166 1.289-.183 1.245-1.184 1.216-1.846a4.028 4.028 0 0 1 .014-.746c.083-.569.02-1.171-.031-1.654a17.201 17.201 0 0 1-.032-.334c.426-.088 1.152-.306 1.252-1.108.079-.637-.385-1.194-.796-1.685-.178-.213-.362-.434-.434-.589-.099-.211-.135-.721-.173-1.261-.044-.624-.1-1.4-.272-2.218-.428-2.037-1.654-3.159-3.975-3.64-2.52-.521-3.052-.525-4.863.562-1.886 1.132-2.316 2.158-2.821 5.099-.319 1.866.004 3.165.326 3.928-1.379-.356-2.743-.414-4.187-.473l-.795-.034c-1.753-.083-7.018.074-9.614.507-1.769.295-3.346.772-4.562 1.38-.438.22-.574.614-.694.961-.099.288-.202.585-.474.925-.736.921-2.506 4.503-3.005 6.084-.161.51-.409 1.28-.682 2.128-.592 1.84-1.263 3.925-1.492 4.725-.143.5-.348 1.079-.555 1.66-.272.769-.555 1.562-.702 2.202-.23.998.133 1.547.399 1.948.078.118.157.232.213.363.192.449.792 1.064 3.77 1.22 1.65.087 2.473.099 3.133-.563.835-.834-.172-3.648-.694-4.394-.36-.514-.795-.854-1.113-1.103-.1-.078-.23-.179-.297-.245.073-.461.691-2.003 1.032-2.853l.099-.247c.468-1.171 1.663-2.774 2.573-3.769.43-.469.88-1.172 1.315-1.852.493-.77 1.05-1.641 1.439-1.913.366-.256 1.761.076 2.78.32.711.169 1.445.345 2.123.433.562.073 1.335.132 2.148.179v3.912c0 1.26-.644 6.353-1.653 10.56-.565 2.355-1.038 3.572-1.327 4.172l-.009.014.002.001a3.312 3.312 0 0 1-.273.479c-.365.256-2.202 1.587-2.935 2.974-.776 1.465-1.579 2.98-1.304 4.812.012.077.031.157.045.235l-.099-.006c-.074 1.247-1.864 4.408-3.069 5.693-.797.85-1.677 2.711-2.53 4.511-.542 1.147-1.055 2.23-1.442 2.811-.802 1.203-1.969 2.082-2.283 2.308-.789.147-5.356 1.063-7.07 2.696-.637.605-1.406 1.388-2.191 2.187-1.367 1.392-2.782 2.83-3.603 3.446-.487.365-1.097.887-1.742 1.438-1.132.968-2.416 2.065-3.28 2.524-1.281.678-2.596.855-4.542.612a18.117 18.117 0 0 1-1.039-.163c-1.189-.211-1.669-.162-2.011 1.206-.232.925-.349 2.678-.349 5.209 0 .491.26.783.468 1.018.248.278.445.5.369 1.179-.034.31-.076.607-.117.897-.16 1.147-.311 2.23.053 3.395.448 1.438 1.17 2.675 1.98 3.396.148.131.268.256.374.366.322.331.627.597 1.051.597.256 0 .556-.098.928-.334 1.025-.651 1.009-1.673.989-2.966l-.006-.625c0-.229-.003-.439-.006-.635-.019-1.123-.027-1.635.66-2.572.562-.768 1.168-1.275 1.61-1.647.269-.226.482-.404.629-.589.249-.312.325-.692.398-1.061.056-.28.108-.544.229-.755.281-.492.716-1.11 1.993-2.302 1.205-1.124 2.43-2.11 4.49-3.265 1.114-.625 2.828-1.513 4.34-2.296 1.315-.682 2.451-1.271 2.924-1.547.437-.254.844-.599 1.238-.931.546-.46 1.061-.896 1.55-1.018.315-.079.726-.14 1.171-.206 1.005-.15 2.143-.321 2.949-.756.702-.378 1.694-1.365 2.745-2.409.692-.688 1.407-1.399 2.009-1.901.83-.69 1.989-1.711 3.03-2.629.845-.743 1.611-1.419 2.059-1.792.348-.289.87-.692 1.439-1.132 1.084-.836 2.312-1.784 2.931-2.401a12.7 12.7 0 0 0 1.438-1.759c.302.127.604.254.899.38 1.837.781 3.422 1.457 4.368 1.679.749.177 2.108.396 3.424.611 1.209.196 2.459.399 3.172.558.537.119 1.232.347 1.904.568l.015.005c-.188.624-.698 2.229-1.331 3.367-.692 1.248-.944 2.617-1.187 3.942-.064.35-.128.696-.199 1.036-.228 1.08-.199 2.234-.174 3.252.013.521.025 1.013-.003 1.402-.06.848-1.002 2.776-1.625 4.053-.158.325-.302.618-.414.86-.46.984-.861 2.246-1.216 3.358-.107.335-.21.655-.308.948-.268.805-.802 1.854-1.274 2.778-.236.464-.457.896-.623 1.256-.217.47-.238.95-.062 1.394.335.842 1.276 1.295 1.664 1.45.721.289 3.238 1.062 4.517.864.919-.144 2.242.036 4.302.572.499.132 1.02.184 1.548.184 1.247 0 2.526-.294 3.618-.544.346-.079.675-.154.98-.216.692-.138 1.221-.515 1.531-1.087.452-.837.31-1.827.17-2.176-.228-.569-1.056-.919-3.279-1.388-1.396-.295-3.221-1.588-4.107-2.386-.573-.515-.949-1.693-1.15-2.327a7.501 7.501 0 0 0-.136-.404c-.233-.582-.382-1.369-.229-1.679.095-.192.241-.519.435-.952a89.76 89.76 0 0 1 1.776-3.8c.882-1.765 1.798-3.967 2.534-5.736.242-.581.461-1.109.649-1.547.845-1.972 2.369-5.865 2.862-7.923.506-2.107-.922-3.421-1.688-4.127a8.991 8.991 0 0 1-.28-.263c-1.664-1.664-4.646-4.582-5.918-5.417-.638-.419-.971-.739-1.324-1.078a10.404 10.404 0 0 0-1.764-1.412c-.552-.358-1.288-.755-2.068-1.177-.983-.531-2.044-1.104-2.903-1.686.013-.044.027-.089.027-.138 0-.495.632-1.683 1.188-2.73.228-.428.461-.867.678-1.3.372-.746 1.045-1.83 1.769-2.953.223.677.562 1.57 1.017 2.389.136.244.249.465.351.663.522 1.02.871 1.698 2.449 1.698h.062c1.904-.021 4.024-2.367 4.754-3.5.448-.698 1.06-1.979 1.599-3.109.392-.818.76-1.59.997-1.998.261-.447.654-1.174 1.084-1.97.533-.987 1.123-2.08 1.585-2.866.246-.419.463-.716.642-.962.432-.594.746-1.026.675-2.073zM76.037 13.69c.236.285.595.714.569.92-.016.125-.167.198-.578.274-.121.022-.22.044-.284.068-.48.175-.427.684-.359 1.328.045.428.101.96.035 1.405-.049.333-.034.652-.022.935.033.755-.011.762-.356.811-1.131.161-1.214-.006-2.352.168-.807.124-1.664.711-2.192 1.129-.171-.415-.355-.991-.525-1.524-.341-1.074-.664-2.088-1.068-2.594-.193-.242-.452-.435-.749-.601.292-.324.63-.884.592-1.754-.066-1.501-.317-2.919.684-3.586 1.001-.667 2.253.417 2.337 1.585.083 1.167.916 1.158.916 1.158s-.499-1.576.335-2.577c.501-.602 1.27-1.5 1.806-2.125.047.153.089.312.123.476.158.751.208 1.458.252 2.083.05.688.088 1.232.263 1.611.125.275.342.535.573.81zm-23.325 7.244c-1.532-.366-2.854-.681-3.587-.167-.551.385-1.113 1.264-1.708 2.193-.412.644-.838 1.31-1.209 1.715-1.003 1.094-2.247 2.778-2.765 4.073l-.099.246c-.969 2.42-1.184 3.103-1.09 3.48.08.32.339.523.668.779.283.222.636.497.909.888.544.778.998 2.772.807 3.113-.329.329-.801.353-2.373.271-2.179-.114-2.834-.482-2.903-.614a3.355 3.355 0 0 0-.298-.522c-.236-.355-.392-.591-.258-1.17.134-.583.407-1.35.67-2.092.214-.603.426-1.202.575-1.72.224-.783.921-2.951 1.481-4.693.274-.85.522-1.622.683-2.133.489-1.547 2.227-5.002 2.833-5.76.38-.476.529-.909.638-1.225.093-.271.132-.361.195-.392 1.128-.564 2.607-1.009 4.279-1.288 2.492-.416 7.727-.576 9.403-.494l.802.034c1.402.057 2.728.111 4.017.45.084.022.171.042.256.063.261.323 1.001 1.246 1.464 1.909.326.464-.169 2.484-.464 3.691-.111.454-.216.885-.294 1.259-.363 1.756-1.067 3.021-1.537 3.23-.533.239-.955.153-3.076-.908-1.325-.663-2.217-1.844-2.672-2.567 1.538.065 2.918.091 3.021.093.262.009.505-.215.51-.491s-.215-.504-.492-.51c-.044-.001-4.497-.085-6.366-.328-.628-.081-1.336-.25-2.02-.413zM22.786 83.319c-.202.354-.276.727-.342 1.056-.052.264-.102.512-.198.633-.084.104-.27.261-.484.44-.349-.77-1.004-2.354-1.126-3.631-.111-1.167.021-2.342.122-3.004a6.96 6.96 0 0 0 1.695-.643c.143-.075.295-.169.452-.27.113.449.354.99.88 1.518.565.563.951 1.062 1.172 1.371-1.368 1.278-1.852 1.973-2.171 2.53zm30.725-21.322a132.8 132.8 0 0 0-2.078 1.81c-1.035.911-2.185 1.926-3.009 2.612-.636.528-1.367 1.256-2.074 1.959-.954.948-1.94 1.929-2.514 2.237-.652.353-1.699.51-2.623.647-.481.072-.923.14-1.264.225-.715.179-1.345.711-1.953 1.224-.361.306-.735.621-1.097.832-.452.263-1.578.847-2.88 1.522-1.519.786-3.241 1.679-4.368 2.311-1.733.971-2.897 1.829-3.944 2.739a12.142 12.142 0 0 0-1.212-1.404c-.581-.58-.675-1.166-.683-1.45a52.235 52.235 0 0 0 2.106-1.737c.632-.54 1.23-1.052 1.691-1.397.882-.662 2.323-2.128 3.717-3.547.776-.789 1.537-1.563 2.167-2.163 1.622-1.544 6.615-2.447 6.665-2.456l.19-.076c.064-.043 1.597-1.074 2.641-2.641.427-.641.955-1.757 1.514-2.938.267-.566.547-1.154.827-1.718l4.366.458 2.969-1.751s1.315-.418 1.533.751c.151.813.229 2.343.264 3.197-.372.288-.705.55-.951.754zM69.503 80.11c.433.213 1.087.456 1.847.456h2.374a5.69 5.69 0 0 0 .329 1.27c.021.051.046.129.075.218-.987-.078-1.411.45-3.613.765-1.057.151-1.62.067-1.937-.065.279-.878.59-1.827.925-2.644zm10.834-23.964c.089.089.193.186.309.292.744.684 1.762 1.621 1.393 3.157-.496 2.07-2.107 6.123-2.809 7.76-.189.442-.41.973-.653 1.558-.73 1.756-1.64 3.94-2.505 5.673a90.896 90.896 0 0 0-1.797 3.842c-.186.416-.324.729-.416.915-.034.069-.055.147-.077.223H71.35c-.588 0-1.108-.203-1.437-.367.065-.137.136-.281.21-.433.903-1.85 1.656-3.458 1.725-4.421.031-.437.019-.952.005-1.497-.023-.964-.051-2.056.152-3.022.073-.348.138-.702.204-1.061.228-1.244.464-2.532 1.078-3.637.681-1.227 1.209-2.878 1.41-3.551.682.209 1.204.339 1.587.339.168 0 .311-.023.431-.075a.507.507 0 0 0 .273-.66.49.49 0 0 0-.646-.268c-.3.068-1.502-.332-2.302-.595-.695-.228-1.415-.464-2-.595-.74-.164-1.949-.36-3.229-.568-1.001-.163-2.026-.329-2.772-.475.731-.393 1.919-1.062 2.975-1.803 1.668-1.168 3.086-2.252 3.086-2.252v-1.751h2.002l.594-1.932c.93.655 2.962 2.526 5.641 5.204zM68.064 40.054c-.213.426-.442.858-.666 1.278-.551 1.038-1.031 1.955-1.216 2.665a4.248 4.248 0 0 1-.456-.453c-1.31-1.572-2.604-2.392-6.809-3.092-1.796-.3-2.978-.249-3.752-.075.266-.751.571-1.767.904-3.152 1.026-4.278 1.681-9.493 1.681-10.794v-2.539c.578.743 1.416 1.597 2.532 2.155 1.484.742 2.331 1.123 3.057 1.123.3 0 .578-.064.873-.196 1.053-.467 1.795-2.416 2.11-3.942.075-.363.179-.782.287-1.223.524-2.147.854-3.727.312-4.503a26.839 26.839 0 0 0-.702-.946c.837.22 1.582.479 1.9.877.288.36.612 1.376.897 2.271.32 1.008.598 1.879.934 2.311.319.41.7.599 1.068.781.433.215.842.417 1.246 1.024.421.631 1.773 2.853 1.504 4.913-.242 1.862-.465 3.114-1.513 4.806-.353.569-.83 1.298-1.34 2.079-1.065 1.632-2.275 3.482-2.851 4.632zm16.393-12.75c-.194.267-.428.589-.694 1.043-.468.794-1.064 1.9-1.604 2.897-.424.784-.811 1.501-1.067 1.941-.259.443-.636 1.234-1.036 2.071-.526 1.103-1.124 2.354-1.538 2.999-.793 1.234-2.646 3.027-3.923 3.041-.999.011-1.104-.167-1.608-1.154-.106-.206-.224-.436-.366-.691-.638-1.148-1.044-2.505-1.181-3l.316-.483c.516-.789.996-1.524 1.353-2.1.719-1.16 1.086-2.144 1.322-3.191.155.341.316.79.43 1.358.249 1.242.44 2.225.521 2.645-.441.569-.784 1.139-.858 1.694a.499.499 0 0 0 .43.562.504.504 0 0 0 .562-.429c.084-.626.888-1.521 1.597-2.312.489-.546.997-1.111 1.334-1.646.252-.399.503-.771.744-1.125.553-.817 1.075-1.588 1.385-2.395.513-1.336-.058-2.481-.437-3.239-.182-.364-.136-1.242.199-1.871.127-.241.347-.536.671-.579 1.176-.158 1.644-.079 2.615.444.93.501 1.251 1.01 1.323 2.096.044.688-.091.873-.49 1.424z"></path>
</svg>
