<svg xmlns="http://www.w3.org/2000/svg" xml:space="preserve" width="100" height="100" id="tennis">
  <path d="M83.249 47.35c-.022-.043-2.332-4.355-2.739-5.886-.443-1.665-3.21-5.056-3.517-5.428-1.396-1.774-3.861-4.02-4.343-4.452-.528-.476-1.348-1.093-2.137-1.689-.812-.612-1.652-1.245-2.019-1.611-.313-.315-.373-.966-.437-1.656-.053-.565-.105-1.15-.303-1.691-.466-1.281-2.122-4.328-3.205-5.52-.996-1.097-2.51-1.364-4.408-1.608-.244-.194-1.146-.912-1.973-1.555-.975-.759-1.688-1.864-1.958-3.033-.325-1.41-1.039-2.478-1.866-3.715l-.132-.199c-.813-1.22-2.058-2.849-3.36-3.679-1.457-.927-3.027-.657-4.372-.274-1.593.457-1.944.986-2.714 2.146l-.134.202c-.918 1.376-.854 1.946-.61 3.164.095.474.069 1.268.044 2.035-.028.86-.057 1.749.06 2.445.228 1.366 1.02 2.866 2.068 3.915.473.473.754.699 1.117.699.155 0 .336-.052.543-.133l-.004.013c-.094.324-.291.998-1.455 2.251-1.469 1.581-1.849 2.466-1.849 4.305 0 1.344.648 3.103 1.168 4.517.182.492.347.94.459 1.306.272.884.98 2.271 1.605 3.494.399.783.777 1.521.981 2.011.549 1.317.964 4.042.764 4.502-.257.514-1.437 1.734-2.397 2.375-.431.287-.667.302-1.057.327-.342.022-.769.049-1.391.257a4.966 4.966 0 0 0-.854.361c-.502-.464-3.685-3.428-4.433-4.735-.097-.17-.209-.375-.337-.61-1.048-1.922-3-5.501-6.068-7.184l-.611-.336c-2.96-1.634-4.915-2.713-8.879-2.401-4.433.35-6.533 4.176-7.391 6.426-.976 2.561-.033 5.638.791 6.976l.057.093c.872 1.418 2.685 4.369 6.414 5.685 2.544.897 4.16 1.345 5.743 1.345.694 0 1.382-.086 2.138-.258a72.599 72.599 0 0 0 3.108-.811c1.437-.398 2.794-.773 3.697-.894 1.253-.168 3.591.011 4.407.083.051.429.19.838.438 1.273.475.83.924.96 1.739 1.195l.375.107c.27.081.499.116.701.116.581 0 .926-.288 1.285-.589a6.4 6.4 0 0 1 .582-.446c.398-.266.56-.571.62-.841 1.062.568 2.072 1.104 2.604 1.348-.291.295-.478.6-.478.891 0 .896.873 1.586 1.737 1.873.021.006.051.026.072.037-.316.527-1.547 2.541-2.519 3.514-.98.979-1.673 1.818-2.474 2.789l-.555.67c-.722.865-.712 1.529-.704 2.117.005.396.01.738-.216 1.19-.276.554-.709 1.293-1.211 2.149-.636 1.088-1.428 2.441-2.21 3.945-.78 1.498-1.324 2.887-1.803 4.11-.384.979-.715 1.826-1.085 2.521-.955 1.791-2.26 3.942-2.909 4.592-.164.164-.293.303-.401.418-.312.336-.312.336-.549.297-.673-.104-1.187.367-1.637.791-.177.166-.355.337-.546.465-.684.456-1.533 1.307-2.432 2.204-.761.762-1.618 1.155-2.915 1.756l-.151.069c-.755.349-1.25.668-1.384 1.182-.146.561.209 1.107.651 1.717l.091.127c.543.75.761.95 1.412.95.167 0 .361-.013.596-.032.278-.023.638-.057 1.115-.078l1.155-.049c1.851-.078 4.648-.195 5.613-.283.195-.019.403-.029.614-.041 1.158-.065 2.598-.146 2.734-1.369.067-.604-.044-1.061-.151-1.502-.086-.353-.167-.687-.167-1.125 0-.664.377-1.397.777-2.174.14-.271.279-.551.411-.832a.479.479 0 0 0 .108-.217c.589-1.229 2.522-4.26 3.615-5.549.253-.3.546-.639.859-1.001 1.15-1.33 2.58-2.985 3.355-4.19.585-.912 1.748-3.137 2.773-5.098.679-1.297 1.265-2.418 1.517-2.838.545-.906 4.127-3.967 5.656-5.273l.447-.381c1.467-1.258 5.39-4.123 5.429-4.15a.514.514 0 0 0 .16-.215l2.842.098h.019a.508.508 0 0 0 .494-.396l.387-1.738.639-.461c-.033.647-.127 1.504-.391 2.24-.524 1.469-1.192 3.873-1.418 5.674-.205 1.658.401 3.942.938 5.957l.146.551c.574 2.182 1.537 5.574 2.367 7.959.5 1.438 1.416 3.56 2.224 5.43.584 1.354 1.089 2.52 1.311 3.139.505 1.41.494 3.789.194 5.184a52.672 52.672 0 0 0-.544 2.936l-.103.619c-.285 1.717.66 2.277 1.625 2.6.318.1.742.146 1.215.146 1.216 0 2.75-.309 3.562-.716 1.456-.729 1.456-2.423 1.456-3.235 0-.748-.49-2.066-.964-3.343-.276-.745-.539-1.449-.655-1.918-.077-.313-.169-.621-.263-.937-.284-.965-.579-1.961-.579-3.438 0-2.034-.835-6.707-1.619-10.07-.623-2.669-1.479-4.219-2.047-5.244a18.64 18.64 0 0 1-.349-.646c-.514-1.025-.342-3.424-.27-4.448.104-1.438 1.355-3.665 2.184-5.14.959-1.704 2.672-5.125 2.688-5.16.011-.021.011-.047.019-.07l1.229.028a.514.514 0 0 0 .515-.442l.178-1.423L83 48.056a.51.51 0 0 0 .281-.298.51.51 0 0 0-.032-.408zm-31.868 2.631-2.607-1.224c.301-.159.625-.375.97-.685a31.222 31.222 0 0 0 2.727-2.835c.104-.125.204-.232.297-.333.403-.436.785-.848.889-1.866.08-.792-.297-2.187-.696-3.664-.194-.722-.379-1.405-.487-1.946a12.221 12.221 0 0 1-.218-2.194c.291.238.582.484.871.734 1.021.88 1.981 1.71 2.972 2.04 1.18.394 1.438.514 1.702 1.57.304 1.212.404 5.425.316 5.88a.5.5 0 0 0 .187.49c-.919.994-1.588 1.656-1.897 1.863-1.023.683-2.718 1.231-3.397 1.435-.261.076-.931.354-1.629.735zm-5.007-31.024c-.086-.036-.36-.311-.464-.414-.906-.906-1.591-2.196-1.786-3.364-.099-.597-.072-1.436-.046-2.246.028-.863.054-1.678-.076-2.327-.171-.855-.234-1.185.256-2.002.713.238 2.087.631 3.22.556 1.6-.107 2.289-1.285 3.018 0 .729 1.285.363 2.249 1.136 2.783.771.535 1.412-.642 1.948-.214.535.428.575 2.659.287 3.256-.198.412-.057 1.445.051 2.054l-.279-.033-.117 1.006.635.074 1.352 5.31-1.713 6.316s-5.209-5.115-6.628-8.217c.446-.67.581-1.115.656-1.374l.03-.098a.506.506 0 0 0-.142-.534c.101-.033.211-.067.333-.102.461-.129.871-.233 1.225-.324 1.312-.335 2.034-.519 2.034-1.234a.506.506 0 0 0-.994-.134c-.189.106-.749.249-1.291.387-.361.093-.778.199-1.248.331a7.98 7.98 0 0 0-1.176.429c-.107.048-.229.102-.221.115zm-2.375 27.185c.498-.166.822-.186 1.135-.206.441-.028.898-.057 1.555-.495.942-.628 2.345-1.972 2.741-2.764.445-.891-.211-4.089-.735-5.345-.219-.526-.604-1.282-1.014-2.082-.49-.961-1.022-2.011-1.342-2.806l2.854-.408c.52.727 1.296 1.643 2.064 2.358-.007.094-.106 1.596.222 3.232.114.575.305 1.272.504 2.012.342 1.262.727 2.692.666 3.297-.068.682-.267.894-.623 1.28-.104.113-.217.234-.332.374a30.082 30.082 0 0 1-2.625 2.73c-.686.617-1.254.777-1.613.818l-3.901-1.83c.124-.052.265-.105.444-.165zm-10.912 2.616c-1.029.285-2.094.58-3.062.799-2.253.514-3.805.187-7.32-1.054-3.391-1.197-5.016-3.84-5.888-5.261l-.058-.093c-.776-1.261-1.508-3.981-.707-6.084.772-2.026 2.646-5.471 6.524-5.777 3.658-.285 5.409.678 8.31 2.278l.613.337c2.808 1.54 4.667 4.949 5.666 6.781.132.241.247.452.347.627.07.122.162.258.263.4-1.381 5.212-2.728 6.302-2.937 6.443-.161.003-.295.1-.388.234-.442.117-.895.24-1.363.37zm3.834-.922c-.168.022-.363.061-.555.098.685-1.015 1.458-2.72 2.184-5.257 1.238 1.418 3.027 3.093 3.526 3.555-.18.292-.297.645-.435 1.104-.062.205-.094.388-.128.574-.881-.077-3.243-.253-4.592-.074zm9.302 1.631c.001.033.005.132-.203.27-.276.185-.488.36-.669.512-.432.36-.522.437-1.044.28l-.387-.113c-.736-.212-.869-.25-1.14-.724-.278-.486-.396-.911-.279-1.572l.979-.184a.498.498 0 0 0 .309.156c.088.009.244.035.419.069a77.92 77.92 0 0 1 1.851.967c.093.124.161.245.164.339zm4.11 2.56c.14-.377 1.876-1.486 2.964-1.812.898-.27 2.571-.832 3.668-1.562.854-.569 3.146-3.158 4.921-5.23.222-.259.755-.74 1.318-1.25 1.304-1.179 2.176-1.991 2.401-2.519.498-1.16-.629-3.754-.86-4.263-.272-.601-.604-2.259-.899-3.721-.262-1.302-.486-2.426-.69-2.986-.015-.038-.029-.081-.046-.122.896-.617 2.935-2.057 3.785-2.906.074.338.123.7.157 1.064.027.308.065.615.117.915a.505.505 0 0 0-.06.371c.011.047 1.07 4.716 1.385 6.711.338 2.134.626 5.658.531 6.501-.047.438-.26.575-.778.868-.197.112-.407.231-.617.381-.418.298-1.116.972-1.926 1.753-.71.685-1.517 1.461-2.175 2.02-.537.455-1.312 1.042-2.062 1.611-1.248.949-2.429 1.844-2.917 2.402-.333.382-.853.778-1.401 1.202-.605.464-1.23.941-1.698 1.47-.853.962-1.043 1.115-1.763 1.115-.453 0-.949-.338-1.388-.634-.315-.215-.612-.418-.916-.518-.566-.187-1.044-.605-1.051-.861zm-14.54 30.567c.102-.107.222-.238.375-.393.068-.068.146-.164.222-.254.714.632 1.982 1.516 2.805 1.953-.074.147-.144.297-.218.441-.186.361-.359.713-.509 1.064-.624-.209-1.854-.641-2.519-1.01-.555-.309-.518-1.234-.5-1.469.113-.093.224-.201.344-.332zm-8.473 7.72.457.125c-.218.01-.338-.016-.457-.125zm30.641-31.656-.445.382c-2.535 2.164-5.289 4.556-5.867 5.521-.269.446-.859 1.578-1.546 2.891-.965 1.848-2.167 4.146-2.729 5.02-.735 1.146-2.14 2.77-3.268 4.076-.316.365-.612.707-.867 1.008-1.072 1.268-2.849 4.024-3.603 5.463-.685-.377-2.088-1.377-2.643-1.861.799-1.15 1.725-2.777 2.262-3.784.398-.746.739-1.618 1.134-2.627.47-1.201 1.002-2.562 1.758-4.015.771-1.481 1.556-2.822 2.187-3.9.51-.872.951-1.626 1.242-2.208.336-.673.329-1.22.323-1.659-.008-.509-.013-.875.47-1.453l.557-.674c.785-.951 1.462-1.771 2.409-2.719 1.055-1.057 2.316-3.115 2.664-3.696.48.315 1.046.634 1.688.634 1.179 0 1.625-.447 2.521-1.455.112-.127.239-.252.377-.379a.492.492 0 0 0 .125.082l3.96 1.606a.509.509 0 0 0 .172.036l1.86.064c-1.227.904-3.629 2.694-4.741 3.647zm20.353 26.483a.82.82 0 0 1 .016.053c-.625-.141-1.487-.278-2.309-.215a3.471 3.471 0 0 0-.905.176 9.69 9.69 0 0 0-.229-1.398c.752-.107 2.094-.265 3.021-.191.115.58.266 1.094.406 1.575zm-2.587-29.772c-1.109 1.973-2.203 4.027-2.312 5.564-.129 1.828-.188 3.85.374 4.971.104.211.229.437.368.687.57 1.034 1.354 2.452 1.945 4.983.772 3.309 1.594 7.882 1.594 9.841 0 .405.021.778.057 1.126-1.104-.044-2.502.135-3.186.236-.268-.68-.691-1.67-1.183-2.807-.802-1.854-1.71-3.955-2.196-5.359-.82-2.355-1.775-5.719-2.346-7.883l-.146-.554c-.486-1.831-1.094-4.108-.91-5.571.216-1.726.859-4.039 1.365-5.459.442-1.242.476-2.711.466-3.324l1.893-1.366 6.703.155c-.466.92-1.723 3.4-2.486 4.76zm4.846-7.39a.51.51 0 0 0-.306.404l-.158 1.259-8.748-.204a.507.507 0 0 0-.31.096l-2.155 1.556a.525.525 0 0 0-.176.127l-1.521 1.1a.507.507 0 0 0-.198.301l-.337 1.518-5.698-.197-3.524-1.429.324-.249c.592-.453 1.148-.882 1.549-1.339.42-.48 1.613-1.386 2.768-2.262.76-.576 1.545-1.172 2.104-1.645.685-.58 1.502-1.368 2.224-2.064.29-.28.565-.545.825-.791 1.146-.137 3.137-.472 4.865-1.6 2.463-1.605 4.068-2.141 4.496-2.89.286-.5.381-1.42.411-1.983.976 1.273 2.277 3.113 2.525 4.04.354 1.335 1.933 4.408 2.565 5.613l-1.525.639z"></path>
</svg>
